<svg width="21" height="21" viewBox="0 0 21 21" fill="none" xmlns="http://www.w3.org/2000/svg">
<g id="li:trash-2" clip-path="url(#clip0_31_476)">
<path id="Vector (Stroke)" fill-rule="evenodd" clip-rule="evenodd" d="M2.16455 5.87041C2.16455 5.41017 2.53765 5.03708 2.99788 5.03708H17.9979C18.4581 5.03708 18.8312 5.41017 18.8312 5.87041C18.8312 6.33065 18.4581 6.70375 17.9979 6.70375H2.99788C2.53765 6.70375 2.16455 6.33065 2.16455 5.87041Z" fill="#D44265"/>
<path id="Vector (Stroke)_2" fill-rule="evenodd" clip-rule="evenodd" d="M8.83154 3.37043C8.61053 3.37043 8.39857 3.45823 8.24229 3.61451C8.08601 3.77079 7.99821 3.98275 7.99821 4.20377V5.0371H12.9982V4.20377C12.9982 3.98275 12.9104 3.77079 12.7541 3.61451C12.5979 3.45823 12.3859 3.37043 12.1649 3.37043H8.83154ZM14.6649 5.0371V4.20377C14.6649 3.54072 14.4015 2.90484 13.9326 2.436C13.4638 1.96716 12.8279 1.70377 12.1649 1.70377H8.83154C8.1685 1.70377 7.53262 1.96716 7.06378 2.436C6.59494 2.90484 6.33154 3.54072 6.33154 4.20377V5.0371H4.66488C4.20464 5.0371 3.83154 5.41019 3.83154 5.87043V17.5371C3.83154 18.2001 4.09494 18.836 4.56378 19.3049C5.03262 19.7737 5.6685 20.0371 6.33154 20.0371H14.6649C15.3279 20.0371 15.9638 19.7737 16.4326 19.3049C16.9015 18.836 17.1649 18.2001 17.1649 17.5371V5.87043C17.1649 5.41019 16.7918 5.0371 16.3315 5.0371H14.6649ZM5.49821 6.70377V17.5371C5.49821 17.7581 5.58601 17.9701 5.74229 18.1264C5.89857 18.2826 6.11053 18.3704 6.33154 18.3704H14.6649C14.8859 18.3704 15.0979 18.2826 15.2541 18.1264C15.4104 17.9701 15.4982 17.7581 15.4982 17.5371V6.70377H5.49821Z" fill="#D44265"/>
<path id="Vector (Stroke)_3" fill-rule="evenodd" clip-rule="evenodd" d="M8.83138 9.20377C9.29162 9.20377 9.66471 9.57686 9.66471 10.0371V15.0371C9.66471 15.4973 9.29162 15.8704 8.83138 15.8704C8.37114 15.8704 7.99805 15.4973 7.99805 15.0371V10.0371C7.99805 9.57686 8.37114 9.20377 8.83138 9.20377Z" fill="#D44265"/>
<path id="Vector (Stroke)_4" fill-rule="evenodd" clip-rule="evenodd" d="M12.1649 9.20377C12.6251 9.20377 12.9982 9.57686 12.9982 10.0371V15.0371C12.9982 15.4973 12.6251 15.8704 12.1649 15.8704C11.7046 15.8704 11.3315 15.4973 11.3315 15.0371V10.0371C11.3315 9.57686 11.7046 9.20377 12.1649 9.20377Z" fill="#D44265"/>
</g>
<defs>
<clipPath id="clip0_31_476">
<rect width="20" height="20" fill="white" transform="translate(0.498047 0.870422)"/>
</clipPath>
</defs>
</svg>
